<?xml version="1.0" encoding="UTF-8" standalone="no"?>
<svg
   xmlns:dc="http://purl.org/dc/elements/1.1/"
   xmlns:cc="http://creativecommons.org/ns#"
   xmlns:rdf="http://www.w3.org/1999/02/22-rdf-syntax-ns#"
   xmlns:svg="http://www.w3.org/2000/svg"
   xmlns="http://www.w3.org/2000/svg"
   xmlns:sodipodi="http://sodipodi.sourceforge.net/DTD/sodipodi-0.dtd"
   xmlns:inkscape="http://www.inkscape.org/namespaces/inkscape"
   width="22.677992pt"
   height="21.195974pt"
   viewBox="0 0 22.677992 21.195975"
   version="1.1"
   id="svg204"
   sodipodi:docname="cart_icon.svg"
   inkscape:version="0.92.3 (2405546, 2018-03-11)">
  <metadata
     id="metadata210">
    <rdf:RDF>
      <cc:Work
         rdf:about="">
        <dc:format>image/svg+xml</dc:format>
        <dc:type
           rdf:resource="http://purl.org/dc/dcmitype/StillImage" />
        <dc:title></dc:title>
      </cc:Work>
    </rdf:RDF>
  </metadata>
  <defs
     id="defs208" />
  <sodipodi:namedview
     pagecolor="#ffffff"
     bordercolor="#666666"
     borderopacity="1"
     objecttolerance="10"
     gridtolerance="10"
     guidetolerance="10"
     inkscape:pageopacity="0"
     inkscape:pageshadow="2"
     inkscape:window-width="1600"
     inkscape:window-height="823"
     id="namedview206"
     showgrid="false"
     inkscape:zoom="8.85"
     inkscape:cx="14.666667"
     inkscape:cy="14.023789"
     inkscape:window-x="-9"
     inkscape:window-y="-9"
     inkscape:window-maximized="1"
     inkscape:current-layer="svg204" />
  <g
     id="#ffffffff"
     transform="translate(0,0.67813155)">
    <path
       d="m 0,0 h 0.9 c 4.45,3.49 3.75,9.87 5.65,14.73 3.87,1.822526 7.73,1.500711 11.6,-0.31 C 19.38,11.71 20.72,9.06 22,6.37 V 20 H 19.62 C 19.65,18.67 19.68,17.838475 19.7,16.508475 16.85,15.818475 16.13,17.72 15.71,20 H 7.89 C 8.03,19.24 8.31,17.71 8.45,16.95 7.36,16.33 6.17,15.95 4.9,15.8 4.76,17.2 4.64,18.6 4.54,20 H 0 Z"
       id="path192"
       inkscape:connector-curvature="0"
       style="opacity:1;fill:#ffffff"
       sodipodi:nodetypes="ccccccccccccccc" />
    <path
       d="M 4.11,0 H 22 V 3.99 C 17.87,3.9 13.62,3.2 9.56,4.17 9.26,4.6 8.66,5.47 8.36,5.91 12.03,6.05 15.71,6 19.38,6.03 18.44,8.28 17.45,10.49 16.36,12.66 13.63,12.51 10.89,12.39 8.16,12.21 6.9,8.11 6.11,3.83 4.11,0 Z"
       id="path194"
       inkscape:connector-curvature="0"
       style="opacity:1;fill:#ffffff" />
  </g>
  <g
     id="#8194a5ff"
     transform="translate(0,0.67813155)">
    <path
       d="m 0.9,0 c 1.07,-0.83232659 2.14,-0.97328163 3.21,0 2,3.83 2.79,8.11 4.05,12.21 2.73,0.18 5.47,0.3 8.2,0.45 1.09,-2.17 2.08,-4.38 3.02,-6.63 C 15.71,6 12.03,6.05 8.36,5.91 8.1634025,5.072722 8.6299963,4.095997 9.56,4.17 13.62,3.2 17.87,3.9 22,3.99 c 0.931252,0.7933333 0.876313,1.5866667 0,2.38 -1.28,2.69 -2.62,5.34 -3.85,8.05 -3.87,0.11 -7.73,0.22 -11.6,0.31 C 4.65,9.87 5.35,3.49 0.9,0 Z"
       id="path197"
       inkscape:connector-curvature="0"
       style="opacity:1;fill:#8194a5"
       sodipodi:nodetypes="cccccccccccc" />
    <path
       d="M 4.9,15.8 C 6.1346653,15.299501 8.1324122,15.156378 8.45,16.95 8.8575677,17.71 9.0347629,19.24 7.89,20 6.8797222,20.638333 5.7761096,20.716658 4.54,20 3.4273811,18.6 3.153101,18.072067 4.9,15.8 Z"
       id="path199"
       inkscape:connector-curvature="0"
       style="opacity:1;fill:#8194a5"
       sodipodi:nodetypes="ccccc" />
    <path
       d="m 15.71,20 c -1.03718,-3.478199 1.352111,-5.640316 3.99,-4 1.485283,1.772371 0.891925,2.880066 -0.08,4 -0.503966,0.723686 -2.666866,0.656409 -3.91,0 z"
       id="path201"
       inkscape:connector-curvature="0"
       style="opacity:1;fill:#8194a5"
       sodipodi:nodetypes="cccc" />
  </g>
</svg>
