<?xml version="1.0" encoding="UTF-8" ?>
<!DOCTYPE svg PUBLIC "-//W3C//DTD SVG 1.1//EN" "http://www.w3.org/Graphics/SVG/1.1/DTD/svg11.dtd">
<svg width="87pt" height="77pt" viewBox="0 0 87 77" version="1.1" xmlns="http://www.w3.org/2000/svg">
<g id="#0075beff">
<path fill="#0075be" stroke="#0075be" stroke-width="0.09375" opacity="1.00" d=" M 0.08 0.11 C 6.00 0.40 12.02 -0.44 17.89 0.58 C 22.55 2.72 22.10 8.72 23.52 12.92 C 42.71 13.01 61.90 12.85 81.09 13.00 C 83.54 12.76 85.58 14.05 87.00 15.95 L 87.00 18.25 C 86.36 23.65 85.91 29.07 85.20 34.46 C 84.97 36.95 82.46 38.57 80.08 38.36 C 63.01 38.44 45.93 38.36 28.85 38.45 C 29.78 42.37 30.37 46.39 31.80 50.17 C 32.47 52.02 34.04 53.70 36.17 53.47 C 50.45 53.65 64.75 53.35 79.03 53.61 C 77.89 56.12 76.44 59.57 73.06 59.21 C 60.70 59.29 48.34 59.23 35.98 59.24 C 30.99 59.55 26.28 55.88 25.32 51.00 C 22.64 38.15 19.93 25.32 17.35 12.45 C 16.83 10.22 16.32 7.01 13.55 6.59 C 10.08 6.19 6.57 6.50 3.09 6.46 C 2.08 4.34 1.08 2.23 0.08 0.11 M 24.95 20.32 C 25.90 24.19 26.76 28.08 27.64 31.96 C 44.95 31.89 62.27 32.04 79.58 31.91 C 79.91 28.05 80.36 24.19 80.88 20.35 C 62.24 20.17 43.59 20.24 24.95 20.32 Z" />
<path fill="#0075be" stroke="#0075be" stroke-width="0.09375" opacity="1.00" d=" M 36.67 66.68 C 39.10 63.06 44.87 63.05 47.28 66.69 C 50.27 70.30 47.78 75.84 43.52 77.00 L 40.79 77.00 C 36.20 76.23 33.78 70.36 36.67 66.68 Z" />
<path fill="#0075be" stroke="#0075be" stroke-width="0.09375" opacity="1.00" d=" M 64.31 65.35 C 68.10 61.89 74.68 65.13 74.89 70.05 C 75.23 73.32 72.67 76.16 69.65 77.00 L 67.04 77.00 C 61.68 76.09 59.77 68.47 64.31 65.35 Z" />
</g>
</svg>
