<?xml version="1.0" encoding="UTF-8" ?>
<!DOCTYPE svg PUBLIC "-//W3C//DTD SVG 1.1//EN" "http://www.w3.org/Graphics/SVG/1.1/DTD/svg11.dtd">
<svg width="77pt" height="77pt" viewBox="0 0 77 77" version="1.1" xmlns="http://www.w3.org/2000/svg">
<g id="#0075beff">
<path fill="#0075be" stroke="#0075be" stroke-width="0.09375" opacity="1.00" d=" M 30.68 0.00 L 34.15 0.00 C 48.53 0.47 61.59 11.53 64.56 25.58 C 66.68 35.24 64.23 45.80 57.84 53.38 C 64.31 59.68 70.69 66.07 77.00 72.52 L 77.00 77.00 L 72.59 77.00 C 65.99 70.82 59.79 64.22 53.29 57.93 C 44.06 65.66 30.41 67.49 19.46 62.53 C 8.41 57.74 0.58 46.47 0.00 34.43 L 0.00 31.53 C 0.19 15.17 14.37 0.72 30.68 0.00 M 24.52 7.76 C 13.56 11.21 5.69 22.48 6.52 34.00 C 6.88 47.19 18.75 58.88 32.01 58.70 C 41.03 59.16 49.95 54.25 54.73 46.65 C 60.06 38.48 60.14 27.22 54.94 18.96 C 48.94 8.82 35.68 3.93 24.52 7.76 Z" />
</g>
</svg>
